<svg xmlns="http://www.w3.org/2000/svg" width="11" height="11" viewBox="0 0 11 11">
  <path d="M 4.5 10.5 L 6.5 10.5 L 8.5 10.5 L 10.5 10.5 L 10.5 8.5 L 10.5 6.5 L 10.5 4.5 L 10.5 2.5 L 10.5 0.5 L 8.5 0.5 L 8.5 2.5 L 8.5 4.5 L 8.5 6.5 L 6.5 6.5 L 4.5 6.5 L 4.5 4.5 L 6.5 4.5 L 6.5 2.5 L 6.5 0.5 L 4.5 0.5 L 4.5 2.5 L 2.5 2.5 L 2.5 0.5 L 0.5 0.5 L 0.5 2.5 L 0.5 4.5 L 2.5 4.5 L 2.5 6.5 L 0.5 6.5 L 0.5 8.5 L 0.5 10.5 L 2.5 10.5 L 2.5 8.5 L 4.5 8.5 L 6.5 8.5 L 8.5 8.5" fill="none" stroke="currentColor" stroke-width="1" stroke-linecap="square" stroke-linejoin="miter" />
</svg>
